<?xml version="1.0" standalone="no"?>
<!DOCTYPE svg PUBLIC "-//W3C//DTD SVG 20010904//EN"
 "http://www.w3.org/TR/2001/REC-SVG-20010904/DTD/svg10.dtd">
<svg version="1.0" xmlns="http://www.w3.org/2000/svg"
 width="1024.000000pt" height="1024.000000pt" viewBox="0 0 1024.000000 1024.000000"
 preserveAspectRatio="xMidYMid meet">
<metadata>
Created by potrace 1.14, written by Peter Selinger 2001-2017
</metadata>
<g transform="translate(0.000000,1024.000000) scale(0.100000,-0.100000)"
fill="#000000" stroke="none">
<path d="M4829 10226 c-2 -2 -49 -7 -104 -11 -55 -4 -118 -8 -140 -10 -46 -4
-265 -33 -310 -40 -28 -5 -211 -40 -265 -51 -252 -50 -706 -197 -958 -310 -89
-40 -402 -197 -457 -229 -33 -19 -72 -40 -87 -47 -16 -7 -28 -16 -28 -20 0 -4
-4 -8 -10 -8 -9 0 -199 -117 -210 -130 -3 -3 -30 -21 -60 -40 -30 -19 -57 -37
-60 -40 -3 -3 -21 -17 -40 -30 -19 -13 -40 -29 -46 -35 -6 -5 -22 -17 -34 -25
-12 -8 -30 -22 -40 -30 -9 -8 -32 -26 -50 -40 -18 -14 -38 -30 -44 -35 -6 -6
-31 -26 -56 -45 -24 -19 -59 -48 -76 -65 -17 -16 -53 -49 -80 -71 -71 -61
-266 -255 -359 -359 -44 -48 -88 -97 -97 -107 -10 -10 -18 -20 -18 -23 0 -3
-10 -16 -22 -29 -13 -12 -34 -38 -48 -56 -14 -18 -30 -38 -36 -44 -6 -6 -45
-58 -88 -116 -42 -58 -83 -112 -89 -120 -7 -8 -37 -53 -67 -100 -30 -47 -58
-86 -62 -88 -5 -2 -8 -10 -8 -17 0 -7 -11 -27 -25 -43 -14 -17 -25 -32 -25
-35 0 -10 -74 -132 -82 -135 -5 -2 -6 -7 -3 -12 3 -5 -1 -14 -7 -22 -24 -24
-174 -330 -238 -483 -35 -82 -69 -163 -76 -180 -35 -83 -144 -426 -169 -535
-2 -8 -15 -60 -28 -115 -14 -55 -28 -118 -32 -140 -4 -22 -9 -51 -11 -65 -3
-14 -9 -41 -14 -60 -4 -19 -11 -60 -15 -90 -4 -30 -9 -64 -11 -75 -2 -11 -6
-42 -10 -70 -3 -27 -7 -61 -9 -74 -15 -94 -20 -239 -20 -606 0 -372 4 -476 20
-590 3 -16 7 -50 10 -75 3 -25 7 -55 9 -66 2 -12 7 -39 10 -60 7 -44 14 -87
20 -124 7 -42 37 -181 52 -245 8 -33 17 -71 20 -85 3 -14 8 -34 11 -45 4 -11
8 -24 9 -30 1 -5 16 -57 34 -115 17 -58 33 -109 34 -115 2 -5 6 -17 9 -25 3
-8 17 -49 31 -91 25 -76 67 -188 91 -244 7 -16 25 -59 40 -95 15 -36 43 -99
63 -140 19 -41 36 -77 37 -80 2 -7 81 -163 103 -201 10 -19 34 -61 53 -94 18
-33 37 -61 41 -63 4 -2 8 -7 8 -12 0 -22 160 -267 285 -435 205 -276 434 -529
670 -740 43 -38 90 -80 103 -93 14 -12 39 -33 55 -45 16 -12 36 -29 45 -38 10
-8 35 -29 57 -45 22 -16 42 -32 45 -35 11 -14 101 -79 109 -79 5 0 11 -4 13
-8 2 -4 26 -23 53 -42 28 -19 52 -37 55 -40 24 -26 495 -310 515 -310 4 0 19
-9 33 -19 15 -10 29 -19 32 -19 3 -1 61 -27 130 -60 69 -32 172 -78 230 -102
58 -23 120 -49 139 -57 35 -16 352 -122 386 -130 39 -8 50 -11 50 -13 0 -1 7
-3 15 -5 8 -1 53 -13 100 -25 47 -12 92 -23 100 -25 8 -2 33 -8 55 -13 22 -6
54 -13 70 -16 17 -2 55 -9 85 -16 30 -6 71 -13 90 -16 19 -3 60 -9 90 -14 30
-6 73 -12 95 -15 99 -12 123 -15 172 -20 157 -16 254 -20 503 -20 330 0 440 7
720 46 249 35 496 89 745 164 140 42 136 40 155 47 8 3 44 16 80 28 36 12 121
45 190 72 69 28 139 56 156 62 18 6 38 17 45 23 8 6 25 14 39 18 14 4 43 17
65 28 22 12 42 22 45 22 13 3 214 109 308 164 34 20 75 43 90 51 15 8 48 30
74 48 26 17 49 32 53 32 3 0 30 18 60 40 30 22 57 40 60 40 3 0 33 21 67 46
35 25 74 53 87 62 13 9 35 27 50 39 42 36 45 39 63 49 10 5 35 24 55 42 21 18
63 53 93 78 184 154 428 396 570 565 25 29 54 63 65 75 11 13 36 43 55 69 19
25 50 62 67 83 18 20 33 42 33 49 0 6 4 13 8 15 8 3 92 113 102 133 9 19 105
160 118 173 6 7 12 20 12 28 0 8 4 14 8 14 5 0 16 15 25 33 9 17 30 55 47 82
17 28 35 60 40 72 5 11 14 24 19 28 6 3 11 15 11 25 0 10 4 20 9 22 10 3 201
390 201 408 0 6 7 22 16 35 9 14 13 25 9 25 -5 0 -2 8 6 18 8 9 23 42 33 72
10 30 25 69 32 85 13 31 94 267 98 288 2 7 6 19 9 27 19 49 101 383 121 493 7
41 26 139 30 163 2 12 8 45 11 75 4 30 9 63 10 74 2 11 6 47 10 80 4 33 9 74
11 90 26 200 25 812 -2 1010 -3 22 -7 56 -8 75 -4 40 -24 190 -32 235 -3 17
-7 41 -9 55 -12 88 -83 395 -119 515 -1 6 -8 30 -15 55 -54 192 -167 494 -257
685 -21 44 -38 82 -38 85 -1 3 -4 10 -7 15 -4 6 -36 66 -71 135 -36 69 -83
156 -106 194 -23 37 -42 70 -42 72 0 7 -54 89 -63 95 -5 3 -8 9 -8 12 1 11
-34 67 -41 67 -5 0 -8 7 -8 15 0 8 -4 15 -10 15 -5 0 -10 5 -10 10 0 6 -5 16
-10 23 -6 7 -42 57 -81 112 -39 55 -75 102 -80 103 -5 2 -9 9 -9 16 0 7 -13
25 -30 41 -16 16 -30 32 -30 37 0 4 -8 16 -17 26 -10 10 -33 37 -51 59 -138
172 -423 462 -599 610 -35 30 -147 121 -198 161 -77 61 -204 152 -213 152 -5
0 -12 3 -14 8 -8 18 -277 192 -297 192 -5 0 -11 4 -13 8 -8 20 -540 292 -571
292 -8 0 -17 3 -19 8 -1 4 -23 15 -48 24 -25 9 -91 34 -147 56 -57 22 -103 38
-103 35 0 -3 -6 -1 -12 5 -16 12 -393 130 -442 137 -12 2 -48 10 -81 18 -75
19 -247 54 -300 62 -22 3 -47 7 -55 10 -15 4 -53 9 -160 21 -30 3 -57 7 -61 9
-3 2 -45 7 -95 10 -49 4 -102 9 -119 12 -35 5 -641 14 -646 9z"/>
</g>
</svg>
